<svg xmlns="http://www.w3.org/2000/svg" viewBox="0 0 229.1 228.9"><defs><style>.cls-1{fill:#fff;stroke:#fff;stroke-miterlimit:10;}</style></defs><g id="Слой_2" data-name="Слой 2"><g id="Слой_1-2" data-name="Слой 1"><path class="cls-1" d="M226.3,92.3a113.46,113.46,0,0,0-20-45.4,114.82,114.82,0,0,0-23.2-23.5A113.24,113.24,0,0,0,137.7,2.8c-2.6-.5-5.2-1-7.8-1.3a111.71,111.71,0,0,0-15.4-1,129.89,129.89,0,0,0-15.4,1c-2.3.3-4.5.7-6.8,1.1A113.87,113.87,0,0,0,22.7,46.8a112.24,112.24,0,0,0-20,45.4c-.4,2.2-.8,4.4-1.1,6.7a109.75,109.75,0,0,0,0,31c.3,2.6.8,5.2,1.3,7.7A113.24,113.24,0,0,0,23.5,183,117.42,117.42,0,0,0,47,206.2a112.24,112.24,0,0,0,45.4,20,116.06,116.06,0,0,0,22.2,2.2,110.67,110.67,0,0,0,23.2-2.4,114.13,114.13,0,0,0,88.4-88.4,111.37,111.37,0,0,0,2.4-23.2A114.2,114.2,0,0,0,226.3,92.3Zm-47.2,45.3A68.62,68.62,0,0,1,47,126.4a68.59,68.59,0,0,1,2.6-34.1A69.16,69.16,0,0,1,92.4,49.5a71.31,71.31,0,0,1,10.1-2.6,68.27,68.27,0,0,1,35.2,3,68.76,68.76,0,0,1,41.7,42.4,68.58,68.58,0,0,1-.3,45.3Z"/></g></g></svg>